<?xml version="1.0" encoding="UTF-8" standalone="no" ?>
<!DOCTYPE svg PUBLIC "-//W3C//DTD SVG 1.1//EN" "http://www.w3.org/Graphics/SVG/1.1/DTD/svg11.dtd">
<svg xmlns="http://www.w3.org/2000/svg" xmlns:xlink="http://www.w3.org/1999/xlink" version="1.1" width="1080" height="1080" viewBox="0 0 1080 1080" xml:space="preserve">
<desc>Created with Fabric.js 5.2.4</desc>
<defs>
</defs>
<rect x="0" y="0" width="100%" height="100%" fill="transparent"></rect>
<g transform="matrix(1 0 0 1 540 540)" id="3c9ab077-587c-4a44-bc55-abc7f1b47d38"  >
<rect style="stroke: none; stroke-width: 1; stroke-dasharray: none; stroke-linecap: butt; stroke-dashoffset: 0; stroke-linejoin: miter; stroke-miterlimit: 4; fill: rgb(255,255,255); fill-rule: nonzero; opacity: 1; visibility: hidden;" vector-effect="non-scaling-stroke"  x="-540" y="-540" rx="0" ry="0" width="1080" height="1080" />
</g>
<g transform="matrix(1 0 0 1 540 540)" id="200e2f0c-b88b-4090-a4db-f9b6d5841300"  >
</g>
<g transform="matrix(1 0 0 1 540 479.46)"  >
<g style="" vector-effect="non-scaling-stroke"   >
		<g transform="matrix(12.5 0 0 12.5 175 -175)"  >
<path style="stroke: none; stroke-width: 1; stroke-dasharray: none; stroke-linecap: butt; stroke-dashoffset: 0; stroke-linejoin: miter; stroke-miterlimit: 4; fill: rgb(0,107,255); fill-rule: nonzero; opacity: 1;" vector-effect="non-scaling-stroke"  transform=" translate(-46, -18)" d="M 63.652 14.49 C 63.375 12.906 62.369 12.946 61.443 13.872 C 60.516999999999996 14.798 51.656 23.658 51.656 23.658 C 48.533 26.781000000000002 43.467 26.781000000000002 40.344 23.657 C 37.219 20.533 37.219 15.469 40.344 12.344 C 40.344 12.344 49.307 3.3810000000000002 50.131 2.558 C 50.953 1.7349999999999999 51.031 0.6569999999999998 49.51 0.34799999999999986 C 48.375 0.117 47.201 0 46 0 C 36.059 0 28 8.06 28 18 C 28 27.939999999999998 36.059 36 46 36 C 55.941 36 64 27.939999999999998 64 18 C 64 16.799 63.852 15.631 63.652 14.49 z" stroke-linecap="round" />
</g>
		<g transform="matrix(12.5 0 0 12.5 -265.94 265.94)"  >
<path style="stroke: none; stroke-width: 1; stroke-dasharray: none; stroke-linecap: butt; stroke-dashoffset: 0; stroke-linejoin: miter; stroke-miterlimit: 4; fill: rgb(0,107,255); fill-rule: nonzero; opacity: 1;" vector-effect="non-scaling-stroke"  transform=" translate(-10.72, -53.28)" d="M 2.342 50.344 C -0.7810000000000001 53.467 -0.7810000000000001 58.533 2.343 61.657000000000004 C 5.4670000000000005 64.781 10.533 64.781 13.656 61.658 L 21.45 53.864000000000004 L 10.136 42.55 L 2.342 50.344 z M 8 59 C 6.344 59 5 57.656 5 56 C 5 54.344 6.344 53 8 53 C 9.655999999999999 53 11 54.344 11 56 C 11 57.656 9.657 59 8 59 z" stroke-linecap="round" />
</g>
		<g transform="matrix(12.5 0 0 12.5 -85.89 85.89)"  >
<path style="stroke: none; stroke-width: 1; stroke-dasharray: none; stroke-linecap: butt; stroke-dashoffset: 0; stroke-linejoin: miter; stroke-miterlimit: 4; fill: rgb(0,107,255); fill-rule: nonzero; opacity: 1;" vector-effect="non-scaling-stroke"  transform=" translate(-25.13, -38.87)" d="M 27.393 25.293 L 11.55 41.136 L 22.865 52.45 L 38.707 36.607 C 33.535 34.578 29.422 30.466 27.393 25.293 z" stroke-linecap="round" />
</g>
</g>
</g>
<g transform="matrix(-0.26 1.02 -1.02 -0.26 465.41 504.14)"  >
<g style="" vector-effect="non-scaling-stroke"   >
		<g transform="matrix(1.56 0 0 1.56 -175.57 261.97)"  >
<path style="stroke: none; stroke-width: 1; stroke-dasharray: none; stroke-linecap: butt; stroke-dashoffset: 0; stroke-linejoin: miter; stroke-miterlimit: 4; fill: rgb(173,191,235); fill-rule: nonzero; opacity: 1;" vector-effect="non-scaling-stroke"  transform=" translate(-143.64, -423.66)" d="M 229.806 376.797 L 171.64100000000002 335.821 L 170.51300000000003 335.709 C 143.62400000000002 332.968 117.26600000000003 344.957 101.72300000000003 367.019 C 86.98000000000003 387.947 81.62200000000003 410.762 76.44100000000003 432.831 C 72.91300000000003 447.89500000000004 69.26000000000003 463.471 62.63600000000003 478.444 C 57.153000000000034 490.826 53.48000000000003 495.24600000000004 53.46700000000003 495.266 L 49.68300000000003 499.54900000000004 L 54.83100000000003 502.028 C 78.78900000000003 513.57 111.14100000000003 515.171 143.59700000000004 506.422 C 177.68700000000004 497.24 206.23600000000005 478.31300000000005 223.96900000000005 453.14200000000005 C 239.51200000000006 431.08000000000004 241.93200000000004 402.22300000000007 230.29100000000005 377.826 L 229.806 376.797 z M 208.721 442.4 C 204.55 448.315 199.573 453.883 193.92600000000002 459.005 C 193.03400000000002 459.602 192.116 460.264 191.15200000000002 461.012 C 180.495 469.394 166.604 465.787 175.05100000000002 448.788 C 183.49800000000002 431.776 168.61100000000002 426.332 156.51700000000002 437.502 C 141.342 451.524 134.21900000000002 440.32800000000003 137.026 432.589 C 139.82600000000002 424.851 149.907 414.298 141.472 407.478 C 136.39600000000002 403.366 129.844 409.373 119.39000000000001 417.519 C 113.40200000000002 422.181 99.61700000000002 420.66700000000003 105.20400000000001 399.969 C 108.227 392.276 111.97200000000001 384.859 116.97000000000001 377.763 C 127.81700000000001 362.351 146.214 353.301 165.07500000000002 354.022 L 214.88500000000002 389.109 C 221.923 406.631 219.575 426.988 208.721 442.4 z" stroke-linecap="round" />
</g>
		<g transform="matrix(1.56 0 0 1.56 -19.93 66.06)"  >
<path style="stroke: none; stroke-width: 1; stroke-dasharray: none; stroke-linecap: butt; stroke-dashoffset: 0; stroke-linejoin: miter; stroke-miterlimit: 4; fill: rgb(173,191,235); fill-rule: nonzero; opacity: 1;" vector-effect="non-scaling-stroke"  transform=" translate(-243.24, -298.28)" d="M 191.519 277.032 C 185.281 284.97499999999997 182.58 295.12699999999995 184.035 305.12199999999996 C 185.505 315.116 191.007 324.068 199.264 329.88599999999997 L 226.094 348.78599999999994 C 234.351 354.60299999999995 244.641 356.77399999999994 254.54399999999998 354.79299999999995 C 264.447 352.79999999999995 273.09799999999996 346.83099999999996 278.48199999999997 338.29299999999995 L 302.83899999999994 299.55899999999997 L 219.79199999999994 241.05299999999997 L 191.519 277.032 z" stroke-linecap="round" />
</g>
		<g transform="matrix(1.56 0 0 1.56 140.75 -176.73)"  >
<path style="stroke: none; stroke-width: 1; stroke-dasharray: none; stroke-linecap: butt; stroke-dashoffset: 0; stroke-linejoin: miter; stroke-miterlimit: 4; fill: rgb(173,191,235); fill-rule: nonzero; opacity: 1;" vector-effect="non-scaling-stroke"  transform=" translate(-346.08, -142.89)" d="M 447.22 6.635 L 447.016 6.497 C 431.53200000000004 -4.41 410.22400000000005 -1.2809999999999997 398.524 13.606 L 229.839 228.265 L 311.497 285.788 L 456.847 54.687 C 466.934 38.658 462.697 17.541 447.22 6.635 z" stroke-linecap="round" />
</g>
</g>
</g>
</svg>